# xmcd
#
# Track frame offsets: 
#        150
#        26417
#        48650
#        90570
#        114952
#        147927
#        162657
#
# Disc length: 2709 seconds
#
# Revision: 0
# Processed by: cddbd v1.5.2PL0 Copyright (c) Steve Scherf et al.
# Submitted via: ExactAudioCopy v0.99pb5
#
DISCID=570a9307
DTITLE=Eric Clapton  - Behind The Sun Japan Tour 1985 - Disc 06
DYEAR=1900
DGENRE=
TTITLE0=Badge
TTITLE1=Let It Rain
TTITLE2=Double Trouble
TTITLE3=Cocaine
TTITLE4=Layla
TTITLE5=Forever Man
TTITLE6=Further On Up The Road
EXTD=
EXTT0=
EXTT1=
EXTT2=
EXTT3=
EXTT4=
EXTT5=
EXTT6=
PLAYORDER=
